<?xml version="1.0" encoding="UTF-8" standalone="no"?>
<!-- Created with Inkscape (http://www.inkscape.org/) -->

<svg
   width="160mm"
   height="160mm"
   viewBox="0 0 160 160"
   version="1.1"
   id="svg5"
   inkscape:version="1.1.2 (b8e25be8, 2022-02-05)"
   sodipodi:docname="nv.svg"
   xmlns:inkscape="http://www.inkscape.org/namespaces/inkscape"
   xmlns:sodipodi="http://sodipodi.sourceforge.net/DTD/sodipodi-0.dtd"
   xmlns="http://www.w3.org/2000/svg"
   xmlns:svg="http://www.w3.org/2000/svg">
  <sodipodi:namedview
     id="namedview7"
     pagecolor="#ffffff"
     bordercolor="#666666"
     borderopacity="1.0"
     inkscape:pageshadow="2"
     inkscape:pageopacity="0.0"
     inkscape:pagecheckerboard="0"
     inkscape:document-units="mm"
     showgrid="false"
     inkscape:zoom="0.42226431"
     inkscape:cx="155.11612"
     inkscape:cy="561.25984"
     inkscape:window-width="1280"
     inkscape:window-height="696"
     inkscape:window-x="0"
     inkscape:window-y="25"
     inkscape:window-maximized="0"
     inkscape:current-layer="layer1" />
  <defs
     id="defs2" />
  <g
     inkscape:label="Layer 1"
     inkscape:groupmode="layer"
     id="layer1">
    <path
       style="fill:#009cc6;stroke-width:0.665001"
       id="path857"
       d="m 12.364484,152.14238 c 0.0688,-1.66982 0.03307,-3.34725 0.206399,-5.00948 2.483802,-23.81989 10.362811,-46.75096 17.332558,-69.524001 1.527463,-5.18498 3.068243,-10.36606 4.582392,-15.55495 2.538736,-8.70008 4.912291,-17.44868 7.53532,-26.12372 2.027759,-6.70632 3.562972,-11.602101 6.334594,-17.928141 0.94598,-2.159135 2.085792,-4.228052 3.128689,-6.342081 0.914768,-1.578189 1.829536,-3.1563785 2.744306,-4.7345675 0,0 -2.970368,1.326716 -2.970368,1.326716 v 0 c -0.844349,1.553892 -1.688701,3.1077875 -2.53305,4.6616805 -0.972878,2.090571 -2.038987,4.140232 -2.918634,6.27171 -3.936661,9.538941 -6.27638,19.547513 -8.97759,29.474723 -1.28488,4.72206 -2.587358,9.43949 -3.929335,14.14564 -1.478727,5.18571 -3.021738,10.35287 -4.532604,15.52931 -4.786042,15.74791 -9.91245,31.432261 -13.921605,47.403631 -1.572781,6.26553 -3.675602,16.16504 -4.8132439,22.85923 -0.297929,1.7531 -0.462,3.52634 -0.692999,5.28952 0,0 3.4251709,-1.74522 3.4251709,-1.74522 z" />
    <path
       style="fill:#009cc6;stroke-width:0.665001"
       id="path914"
       d="m 51.428932,10.865535 c -0.04368,7.173468 -0.647364,14.320438 -1.292698,21.459095 -1.231855,12.207709 -3.033456,24.343689 -3.677883,36.606829 -0.339365,6.45796 -0.288095,9.82168 -0.315188,16.0694 0.190405,6.53449 -0.236744,13.05955 -0.453792,19.585711 -0.07276,2.18769 -0.206118,4.37652 -0.15593,6.56484 0.137581,5.99859 0.474107,6.46415 1.595316,12.21703 1.53956,5.72173 3.977675,11.17041 7.534799,15.92503 1.268235,1.69518 1.974913,2.37661 3.35747,3.84827 1.833814,1.71864 0.956466,0.89625 2.63208,2.46712 0,0 3.207015,-1.98521 3.207015,-1.98521 v 0 c -1.721353,-1.53278 -0.824484,-0.73067 -2.689643,-2.40741 -1.455026,-1.42469 -2.151264,-2.0284 -3.479253,-3.70802 -3.651638,-4.61853 -6.165572,-9.98606 -7.761898,-15.63659 -1.159693,-5.73473 -1.490978,-6.12117 -1.638832,-12.11698 -0.05387,-2.18447 0.07518,-4.36981 0.147632,-6.55374 0.216318,-6.520631 0.736918,-13.043041 0.389787,-19.571551 -0.158033,-6.17813 -0.333129,-9.45001 -0.06312,-15.85321 0.524769,-12.44497 2.527554,-24.7247 4.485973,-37.005383 0.571825,-7.212753 0.980718,-14.438368 1.689391,-21.6396335 0,0 -3.511222,1.7344025 -3.511222,1.7344025 z" />
    <path
       style="fill:#009cc6;stroke-width:0.665001"
       id="path916"
       d="m 65.899598,140.31293 c 0.43063,-1.82176 0.835877,-3.6497 1.291897,-5.46526 2.711391,-10.79496 2.526765,-8.96666 5.231193,-21.10708 1.754772,-7.87732 4.192214,-20.131951 5.591252,-28.079311 0.753898,-4.2826 1.387258,-8.58554 2.080887,-12.8783 0.63802,-5.7097 1.81281,-15.19105 2.07848,-21.16773 0.12388,-2.7866 0.23058,-5.58726 0.0122,-8.36805 C 81.491087,34.406139 78.601824,26.024795 75.852298,17.675384 74.018651,12.211632 71.754132,6.9142125 69.46442,1.6318095 c 0,0 -2.952226,1.667631 -2.952226,1.667631 v 0 c 2.491354,5.155893 4.938557,10.3380155 6.861038,15.7417515 2.189699,6.427123 3.631231,10.014823 5.002572,16.765857 0.585708,2.88341 1.031465,5.80218 1.274,8.73447 0.805843,9.74277 -0.724749,19.53617 -1.530106,29.20969 -0.63963,4.26388 -1.194692,8.5413 -1.918891,12.79163 -3.200384,18.783151 -7.711593,37.320271 -13.677995,55.418051 0,0 3.376814,-1.64796 3.376814,-1.64796 z" />
    <path
       style="fill:#009cc6;stroke-width:0.665001"
       id="path918"
       d="m 86.445527,20.853947 c 0.54033,1.59547 1.09701,3.185494 1.62098,4.786411 2.75313,8.411831 1.93865,6.597793 5.38779,15.864781 3.25856,8.75494 6.816703,17.40433 10.201753,26.11116 4.45555,10.32675 5.54469,21.58973 7.19633,32.595091 0.89822,5.98508 1.81278,11.96769 2.71218,17.95259 1.81217,10.82927 1.81433,21.57879 0.35348,32.4247 -0.14192,0.83227 -0.28384,1.66454 -0.42576,2.4968 0,0 3.27913,-1.60977 3.27913,-1.60977 v 0 c 0.10567,-0.81856 0.21134,-1.63712 0.31701,-2.45568 0.28652,-2.8179 0.49945,-4.56015 0.62454,-7.48026 0.3538,-8.25841 -0.18396,-16.56698 -1.64317,-24.70295 -1.14968,-6.71964 -1.91334,-10.96637 -2.92281,-17.835821 -0.49268,-3.35263 -0.90442,-6.7167 -1.37761,-10.07213 -0.85146,-6.03777 -1.31589,-10.85169 -3.13157,-16.62135 -0.65814,-2.09134 -1.64261,-4.06561 -2.46391,-6.09842 -6.441563,-15.34985 -12.915103,-30.78203 -16.426883,-47.123672 0,0 -3.30148,1.76852 -3.30148,1.76852 z" />
    <path
       style="fill:#009cc6;stroke-width:0.665001"
       id="path920"
       d="m 117.63956,149.78124 c -0.0672,-1.77463 -0.23238,-3.54826 -0.20147,-5.32389 0.13417,-7.70588 0.91774,-16.87712 1.79771,-24.36213 1.44166,-12.2629 2.69009,-19.53165 5.23418,-31.635781 1.01347,-4.82184 2.20925,-9.60357 3.31388,-14.40535 3.54031,-13.56629 7.10385,-27.19475 12.23162,-40.26741 1.41166,-3.382361 2.66634,-6.813922 4.30597,-10.093779 1.26497,-2.675964 3.28341,-4.989367 4.46989,-7.705085 0.20561,-0.470622 0.34572,-0.967224 0.51858,-1.450837 0.14781,-0.529693 0.29562,-1.059384 0.44342,-1.589077 0,0 -3.40802,1.617247 -3.40802,1.617247 v 0 c -0.15661,0.522449 -0.31323,1.044901 -0.46985,1.567352 -1.29139,3.199588 -3.26898,6.046695 -4.90557,9.074587 -0.74714,1.455361 -1.2502,2.35204 -1.86103,3.826491 -0.85407,2.061604 -1.48597,4.221591 -2.36251,6.275821 -4.46099,12.93762 -7.51892,26.30971 -10.72783,39.59563 -2.43152,11.12037 -4.24806,18.86516 -6.19626,30.201121 -2.3156,13.47378 -4.06929,27.19653 -5.27502,40.81916 -0.1652,1.86656 -0.23424,3.74038 -0.35137,5.61057 0,0 3.44368,-1.75464 3.44368,-1.75464 z" />
    <circle
       id="path922"
       style="fill:#009cc6;stroke:#000000;stroke-width:0.264583"
       cx="52.632915"
       cy="8.772151"
       r="0.20976755" />
    <circle
       id="path924"
       style="fill:#009cc6;stroke:#000000;stroke-width:0.264583"
       cx="52.632915"
       cy="8.772151"
       r="0.20976755" />
    <path
       style="fill:#009cc6;stroke-width:0.665001"
       id="path926"
       d="m 62.052048,142.13561 c -0.652925,2.92798 -0.852027,2.16007 3.29002,-0.0212 0.743701,-2.68513 -3.499432,1.00455 -3.799684,1.18733 0,0 3.667493,-1.51277 3.667493,-1.51277 v 0 c -1.072534,0.612 -2.085999,1.34168 -3.217604,1.83599 -0.476903,0.20833 0.212289,-1.00258 -0.266914,0.14845 4.307274,-2.00657 3.14451,-0.51129 3.895476,-3.3474 0,0 -3.568787,1.70959 -3.568787,1.70959 z" />
    <path
       style="fill:#009cc6;stroke-width:0.665001"
       id="path928"
       d="m 54.391773,13.140457 c 0.02564,-1.682358 -0.238704,-3.3458365 -0.415279,-5.0147335 0,0 -3.44202,1.803546 -3.44202,1.803546 v 0 c 0.204843,1.6598565 0.44968,3.3270005 0.339574,5.0035565 0,0 3.517725,-1.792369 3.517725,-1.792369 z" />
  </g>
</svg>
